# xmcd CD database file
#
# Track frame offsets:
#	150
#	14439
#	31587
#	44464
#	61972
#	78345
#	95445
#	111360
#	130144
#	149281
#	165154
#	178023
#	192330
#
# Disc length: 2810 seconds
#
# Revision: 0
# Processed by: cddbd v1.5.2PL0 Copyright (c) Steve Scherf et al.
# Submitted via: CDex 1.70beta2
#
DISCID=a40af80d
DTITLE=Collins, Kevin - Cdn. - Placentia, NL - This Is My Home
DYEAR=1900
DGENRE=Country
TTITLE0=This Is My Home
TTITLE1=If We Only Had Old Ireland Over Here
TTITLE2=Will You Love Me the Way
TTITLE3=Clare To Here
TTITLE4=Your Wedding Day
TTITLE5=You Can't Turn Back the Years
TTITLE6=Kingdome of Kerry
TTITLE7=Emigrant's Farewell
TTITLE8=Streets of New York
TTITLE9=Be Nice to the People
TTITLE10=Cottage Bu the Sea
TTITLE11=On One To Welcome You Home
TTITLE12=Tomb of the Unknown Grave
EXTD=
EXTT0=
EXTT1=
EXTT2=
EXTT3=
EXTT4=
EXTT5=
EXTT6=
EXTT7=
EXTT8=
EXTT9=
EXTT10=
EXTT11=
EXTT12=
PLAYORDER=
